<svg width="17" height="20" viewBox="0 0 17 20" fill="none" xmlns="http://www.w3.org/2000/svg">
<path d="M0.829268 6.25C0.829268 6.25 0 7.08333 0 10C0 12.9167 0.829268 13.75 0.829268 13.75H3.73171L3.31707 6.25H0.829268ZM10.7805 0C9.95122 4.16667 4.97561 6.25 4.97561 6.25V13.75C4.97561 13.75 9.95122 15.8333 10.7805 20H12.439V0H10.7805ZM15.1304 14.7221L14.3086 13.6117C14.3215 13.5967 15.3415 11.9429 15.3415 10C15.3415 8.05708 14.3215 6.40333 14.307 6.38708L15.1304 5.27833C15.2071 5.36417 17 7.41042 17 10C17 12.5896 15.2071 14.6358 15.1304 14.7221Z" fill="#E43434"/>
</svg>
